<svg width="16" height="16" viewBox="0 0 16 16" fill="none" xmlns="http://www.w3.org/2000/svg">
<path d="M14.0667 12.2H7.53333L3.8 15V12.2H1.93333C1.6858 12.2 1.4484 12.1017 1.27337 11.9266C1.09833 11.7516 1 11.5142 1 11.2667V1.93333C1 1.6858 1.09833 1.4484 1.27337 1.27337C1.4484 1.09833 1.6858 1 1.93333 1H14.0667C14.3142 1 14.5516 1.09833 14.7266 1.27337C14.9017 1.4484 15 1.6858 15 1.93333V11.2667C15 11.5142 14.9017 11.7516 14.7266 11.9266C14.5516 12.1017 14.3142 12.2 14.0667 12.2Z" stroke="#0066b2" stroke-width="1.5" stroke-linecap="round" stroke-linejoin="round"/>
<path d="M4 5H12" stroke="#0066b2" stroke-width="1.5" stroke-linecap="round" stroke-linejoin="round"/>
<path d="M4 8H10" stroke="#0066b2" stroke-width="1.5" stroke-linecap="round" stroke-linejoin="round"/>
</svg>
