<svg width="14" height="14" viewBox="0 0 14 14" fill="none" xmlns="http://www.w3.org/2000/svg">
<g clip-path="url(#clip0)">
<path d="M6 9.625H7H8C7.76794 9.625 6.96601 9.625 7 9.5V8.75V6.5625C7 6.44647 6.95391 6.33519 6.87186 6.25314C6.78981 6.17109 6.67853 6.125 6.5625 6.125H6.26439" stroke="#707070" stroke-linecap="round" stroke-linejoin="round"/>
<path d="M6.75 3.5C6.60166 3.5 6.45666 3.54399 6.33332 3.6264C6.20999 3.70881 6.11386 3.82594 6.05709 3.96299C6.00032 4.10003 5.98547 4.25083 6.01441 4.39632C6.04335 4.5418 6.11478 4.67544 6.21967 4.78033C6.32456 4.88522 6.4582 4.95665 6.60368 4.98559C6.74917 5.01453 6.89997 4.99967 7.03701 4.94291C7.17406 4.88614 7.29119 4.79001 7.3736 4.66668C7.45601 4.54334 7.5 4.39834 7.5 4.25C7.5 4.05109 7.42098 3.86032 7.28033 3.71967C7.13968 3.57902 6.94891 3.5 6.75 3.5Z" fill="#707070"/>
<path d="M1 7C1 8.5913 1.63214 10.1174 2.75736 11.2426C3.88258 12.3679 5.4087 13 7 13C8.5913 13 10.1174 12.3679 11.2426 11.2426C12.3679 10.1174 13 8.5913 13 7C13 5.4087 12.3679 3.88258 11.2426 2.75736C10.1174 1.63214 8.5913 1 7 1C5.4087 1 3.88258 1.63214 2.75736 2.75736C1.63214 3.88258 1 5.4087 1 7V7Z" stroke="#707070" stroke-linecap="round" stroke-linejoin="round"/>
</g>
<defs>
<clipPath id="clip0">
<rect width="14" height="14" fill="white"/>
</clipPath>
</defs>
</svg>
