<svg width="14" height="14" viewBox="0 0 14 14" fill="none" xmlns="http://www.w3.org/2000/svg">
<g clip-path="url(#clip0)">
<path d="M9.79613 0.147057L2.52138 6.55439C2.46084 6.61243 2.41267 6.68212 2.37976 6.75926C2.34685 6.8364 2.32988 6.9194 2.32988 7.00327C2.32988 7.08713 2.34685 7.17013 2.37976 7.24727C2.41267 7.32441 2.46084 7.3941 2.52138 7.45214L9.79613 13.8566C9.85384 13.9078 9.92126 13.9469 9.99438 13.9715C10.0675 13.9962 10.1448 14.0059 10.2218 14.0001C10.2987 13.9942 10.3737 13.973 10.4423 13.9376C10.5109 13.9023 10.5716 13.8535 10.621 13.7941L11.5292 12.715C11.6307 12.5946 11.6807 12.4392 11.6686 12.2823C11.6565 12.1254 11.5832 11.9795 11.4645 11.8761L5.95022 7.11322C5.93431 7.09953 5.92154 7.08257 5.91279 7.06349C5.90403 7.04441 5.8995 7.02367 5.8995 7.00268C5.8995 6.98169 5.90403 6.96095 5.91279 6.94187C5.92154 6.9228 5.93431 6.90583 5.95022 6.89214L11.4627 2.12747C11.5218 2.07613 11.5702 2.01364 11.6052 1.94357C11.6401 1.87351 11.6609 1.79724 11.6663 1.71914C11.6732 1.64147 11.6645 1.5632 11.6407 1.48896C11.6168 1.41471 11.5783 1.346 11.5275 1.28689L10.6186 0.20714C10.5692 0.147955 10.5084 0.0992831 10.4398 0.064C10.3712 0.0287179 10.2963 0.00754058 10.2194 0.00172126C10.1425 -0.00409807 10.0652 0.00555978 9.99212 0.0301217C9.91902 0.0546845 9.85158 0.0936526 9.7938 0.144724L9.79613 0.147057Z" fill="#0066B2"/>
</g>
<defs>
<clipPath id="clip0">
<rect width="14" height="14" fill="white"/>
</clipPath>
</defs>
</svg>
