<svg width="14" height="14" viewBox="0 0 14 14" fill="none" xmlns="http://www.w3.org/2000/svg">
<g clip-path="url(#clip0)">
<path d="M4.20411 13.8547L11.4789 7.44732C11.5394 7.38928 11.5876 7.31959 11.6205 7.24245C11.6534 7.16531 11.6704 7.08231 11.6704 6.99844C11.6704 6.91458 11.6534 6.83157 11.6205 6.75443C11.5876 6.67729 11.5394 6.60761 11.4789 6.54957L4.20411 0.145151C4.1464 0.0939282 4.07898 0.0548287 4.00587 0.0301757C3.93275 0.00552259 3.85542 -0.00418101 3.77847 0.00164143C3.70153 0.00746388 3.62654 0.0286936 3.55797 0.064069C3.48939 0.0994445 3.42862 0.148244 3.37928 0.207567L2.47103 1.28673C2.36957 1.40707 2.3195 1.56248 2.33161 1.71941C2.34373 1.87634 2.41706 2.02222 2.53578 2.12557L8.05003 6.88848C8.06594 6.90217 8.07871 6.91914 8.08746 6.93822C8.09621 6.95729 8.10074 6.97804 8.10074 6.99903C8.10074 7.02002 8.09621 7.04076 8.08746 7.05984C8.07871 7.07891 8.06594 7.09588 8.05003 7.10957L2.53753 11.8742C2.47842 11.9256 2.43002 11.9881 2.39508 12.0581C2.36015 12.1282 2.33938 12.2045 2.33395 12.2826C2.32702 12.3602 2.33574 12.4385 2.35959 12.5128C2.38343 12.587 2.42192 12.6557 2.47278 12.7148L3.38161 13.7946C3.43105 13.8538 3.49185 13.9024 3.56043 13.9377C3.629 13.973 3.70395 13.9942 3.78085 14C3.85774 14.0058 3.93503 13.9961 4.00813 13.9716C4.08123 13.947 4.14866 13.9081 4.20645 13.857L4.20411 13.8547Z" fill="#AAAAAA"/>
</g>
<defs>
<clipPath id="clip0">
<rect width="14" height="14" fill="white"/>
</clipPath>
</defs>
</svg>
