<svg width="18" height="16" viewBox="0 0 18 16" fill="none" xmlns="http://www.w3.org/2000/svg">
<path d="M1 3H12V13H1V3Z" stroke="#0066b2" stroke-width="1.5" stroke-linecap="round" stroke-linejoin="round"/>
<path d="M14 9.88057L16.2767 10.9505C16.3529 10.9863 16.4376 11.0032 16.5227 10.9995C16.6078 10.9959 16.6905 10.9719 16.763 10.9297C16.8355 10.8876 16.8953 10.8287 16.9367 10.7588C16.9782 10.6888 17 10.61 17 10.5299V5.46984C17.0001 5.38972 16.9783 5.31092 16.9368 5.24094C16.8954 5.17095 16.8355 5.11212 16.763 5.07002C16.6905 5.02793 16.6078 5.00398 16.5226 5.00045C16.4375 4.99693 16.3528 5.01395 16.2767 5.04989L14 6.11982" stroke="#0066b2" stroke-width="1.5" stroke-linecap="round" stroke-linejoin="round"/>
</svg>
