<?xml version="1.0" encoding="utf-8"?>
<!-- Generator: Adobe Illustrator 24.1.0, SVG Export Plug-In . SVG Version: 6.00 Build 0)  -->
<svg version="1.1" id="Layer_1_Freeman_Showstream" xmlns="http://www.w3.org/2000/svg" xmlns:xlink="http://www.w3.org/1999/xlink" x="0px" y="0px"
	 viewBox="0 0 802.461 133.147" style="enable-background:new 0 0 802.461 133.147;" xml:space="preserve">
<style type="text/css">
	.st0{fill:#2E2C2D;}
	.st1{fill:#7F7F7F;}
</style>
<g>
	<path class="st0" d="M360.889,0.021h13.016l18.525,26.305h0.127V0.021h9.587V37.87H389.59l-19.008-26.957h-0.106V37.87h-9.587
		V0.021 M0,0.021h29.207v7.696H9.588v7.696h18.146v7.716H9.588V37.87H0V0.021 M51.348,0.021H68.17
		c8.916,0,16.422,2.671,16.422,11.502c0,5.299-3.259,9.399-9.399,10.367l11.019,15.98H74.773l-9.106-15.141h-4.688V37.87h-9.631
		V0.021 M60.979,15.687h5.656c3.511,0,8.054,0,8.054-4.206c0-3.785-3.932-4.374-7.445-4.374h-6.265V15.687z M109.151,0.021h29.586
		v7.696h-19.996v7.065h18.881v7.696h-18.881v7.696h21.11v7.696h-30.7V0.021 M169.332,0.021h29.585v7.696H178.92v7.065h18.882v7.696
		H178.92v7.696h21.089v7.696h-30.678V0.021 M227.661,0.021h14.509L252.2,24.728h0.126l10.093-24.707h14.445V37.87h-9.588V8.831
		h-0.125L255.712,37.87h-7.318L237.376,8.831h-0.105V37.87h-9.609V0.021 M314.357,0.021h7.926l18.924,37.849h-10.829l-3.743-8.012
		h-16.823l-3.7,8.012h-10.513L314.357,0.021 M318.036,11.039l-5.279,11.754h10.639L318.036,11.039z M419.324,11.481
		c-3.171-0.013-5.73-2.592-5.718-5.763c0.013-3.171,2.592-5.731,5.763-5.718c3.121,0.012,5.66,2.515,5.717,5.635
		c0.082,3.146-2.403,5.763-5.549,5.844C419.466,11.481,419.394,11.482,419.324,11.481z M419.324,0.568
		c-2.834,0.023-5.112,2.338-5.088,5.172c0,0.006,0,0.014,0,0.021c-0.035,2.821,2.224,5.138,5.046,5.172c0.027,0,0.057,0,0.084,0
		c2.809-0.011,5.095-2.26,5.151-5.067c0.093-2.832-2.127-5.204-4.96-5.297c-0.07-0.002-0.141-0.003-0.212-0.002H419.324z
		 M419.176,2.124c1.766,0,2.566,0.63,2.566,2.103c0.138,1.007-0.553,1.941-1.557,2.103l1.661,3.133h-1.303l-1.451-3.133h-0.884
		v3.049h-1.093V2.124H419.176z M418.208,5.362h0.926c1.031,0,1.473-0.358,1.473-1.135c0-0.778-0.464-1.115-1.577-1.115h-0.822V5.362
		z"/>
</g>
<g>
	<path class="st0" d="M47.619,83.423c-2.112-3.456-7.007-10.08-17.663-10.08c-2.88,0-12.671,1.057-12.671,8.256
		c0,5.279,5.184,6.527,12.383,8.063l7.104,1.536c10.655,2.304,21.982,6.432,21.982,20.062c0,16.799-16.703,21.886-28.798,21.886
		c-11.327,0-23.614-4.031-29.662-14.494l10.655-7.392c2.976,4.415,8.543,10.175,21.022,10.175c7.391,0,13.055-3.071,13.055-8.927
		c0-5.568-4.512-6.816-13.055-8.736l-8.64-1.919c-8.639-1.92-19.391-5.568-19.391-18.815c0-11.999,9.695-21.118,26.782-21.118
		c6.047,0,17.951,0.96,27.358,13.728L47.619,83.423z"/>
	<path class="st0" d="M100.708,131.419v-28.126c0-7.008-3.456-10.367-9.023-10.367c-6.24,0-11.999,4.704-11.999,11.903v26.59h-11.52
		V63.648h11.52v24.671c2.879-2.976,8.063-6.336,15.167-6.336c10.463,0,17.183,5.952,17.183,16.991v32.445H100.708z"/>
	<path class="st0" d="M146.403,132.858c-17.471,0-24.958-13.919-24.958-25.63c0-11.519,7.583-25.246,24.574-25.246
		c10.463,0,24.67,7.008,24.766,25.246C170.786,120.092,162.722,132.858,146.403,132.858z M146.403,122.3
		c8.447,0,12.383-7.199,12.383-14.495c0-7.68-4.128-15.455-12.959-15.455c-6.72,0-12.383,4.896-12.383,14.591
		C133.444,115.388,138.148,122.3,146.403,122.3z"/>
	<path class="st0" d="M230.209,131.419h-11.424l-8.639-30.622l-9.12,30.622h-11.423l-13.919-47.996h11.999l8.352,32.829
		l8.928-32.829h10.271l8.832,32.829l8.543-32.829h11.999L230.209,131.419z"/>
	<path class="st0" d="M295.585,83.423c-2.111-3.456-7.007-10.08-17.662-10.08c-2.88,0-12.672,1.057-12.672,8.256
		c0,5.279,5.184,6.527,12.384,8.063l7.104,1.536c10.655,2.304,21.982,6.432,21.982,20.062c0,16.799-16.703,21.886-28.798,21.886
		c-11.327,0-23.614-4.031-29.662-14.494l10.655-7.392c2.976,4.415,8.543,10.175,21.022,10.175c7.392,0,13.055-3.071,13.055-8.927
		c0-5.568-4.512-6.816-13.055-8.736l-8.64-1.919c-8.64-1.92-19.391-5.568-19.391-18.815c0-11.999,9.695-21.118,26.782-21.118
		c6.048,0,17.95,0.96,27.358,13.728L295.585,83.423z"/>
	<path class="st0" d="M310.468,83.423h7.008V66.336h11.519v17.087h10.271v8.159h-10.271v23.806c0,1.824,0.097,3.937,1.152,5.088
		c1.344,1.44,3.84,1.44,4.319,1.44c1.632,0,3.36-0.192,4.8-0.576v9.695c-1.536,0.191-4.319,0.768-8.255,0.768
		c-10.271,0-13.535-3.743-13.535-11.615V91.582h-7.008V83.423z"/>
	<path class="st0" d="M357.409,83.423v6.815c3.648-7.584,12-7.872,14.304-7.872h0.96v11.808c-2.4,0-11.615,0-14.399,8.831
		c-0.864,2.688-0.864,5.088-0.864,7.871v20.543h-11.135V83.423H357.409z"/>
	<path class="st0" d="M387.65,109.725c0.191,2.399,2.399,11.903,13.535,11.903c8.159,0,11.615-4.992,12.575-6.624l9.791,5.664
		c-3.84,5.184-10.848,12.19-23.423,12.19c-14.303,0-24.67-9.791-24.67-25.726c0-17.183,11.615-25.15,24.095-25.15
		c18.334,0,23.614,14.688,23.614,27.742H387.65z M410.495,101.277c-0.191-2.4-1.728-10.079-10.751-10.079
		c-9.503,0-11.327,8.159-11.711,10.079H410.495z"/>
	<path class="st0" d="M460.512,131.419l-0.288-3.744c-3.167,2.496-8.255,4.896-14.11,4.896c-10.943,0-17.471-6.624-17.471-14.688
		c0-10.463,7.967-14.591,17.087-16.223c7.199-1.344,11.711-2.496,14.782-3.552c0-3.647-1.056-7.199-8.255-7.199
		c-8.735,0-9.695,4.703-9.695,7.199l-11.711-0.672c0.191-3.168,0.863-15.455,21.022-15.455c14.11,0,20.158,5.184,20.158,13.631
		v28.03c0,3.647,0.192,4.703,2.111,7.775H460.512z M460.512,107.517c-1.92,0.96-4.703,2.016-9.119,2.688
		c-5.279,0.769-10.56,1.824-10.56,6.624c0,3.168,2.112,5.855,7.872,5.855c5.279,0,11.807-2.688,11.807-8.735V107.517z"/>
	<path class="st0" d="M495.841,83.423v5.375c2.016-2.688,7.679-6.815,15.07-6.815c5.472,0,10.655,2.496,13.344,7.296
		c3.071-3.936,7.967-7.296,15.454-7.296c9.695,0,16.511,5.088,16.511,16.606v32.83h-11.423v-29.374c0-1.823-0.384-9.312-8.063-9.312
		c-1.824,0-5.951,0.672-8.543,4.896c-2.208,3.455-2.304,7.391-2.304,11.23v22.559h-11.424v-29.47c0-3.744-1.632-9.119-7.871-9.119
		c-1.152,0-3.647,0.288-6.048,2.304c-4.703,4.031-4.8,10.751-4.8,16.127v20.158h-11.519V83.423H495.841z"/>
	<path class="st1" d="M595.297,122.012c11.135-7.968,19.198-16.031,22.654-19.871c1.536-1.728,7.008-7.679,7.008-15.839
		c0-5.279-2.784-9.695-8.544-9.695c-8.831,0-9.119,8.832-9.119,13.823v1.248l-11.999-1.151v-0.48c0-8.159,2.496-13.439,4.607-16.318
		c2.112-2.977,7.775-8.16,17.567-8.16c7.679,0,12.479,3.264,14.687,5.28c4.224,3.743,6.048,9.503,6.048,15.07
		c0,1.92-0.192,5.952-2.496,10.752c-3.84,8.062-11.327,13.727-17.854,19.294c-2.304,1.92-4.512,3.84-6.912,5.472h28.414v9.983
		h-44.061V122.012z"/>
	<path class="st1" d="M670.75,132.283c-22.558,0-23.518-22.942-23.518-33.598c0-23.711,10.175-33.118,24.094-33.118
		c12.191,0,23.23,8.447,23.23,33.214C694.557,125.371,682.077,132.283,670.75,132.283z M670.943,121.628
		c9.216,0,11.135-9.216,11.135-22.654c0-9.312-0.384-22.751-10.942-22.751c-9.695,0-11.52,11.039-11.52,23.135
		C659.615,106.557,659.615,121.628,670.943,121.628z"/>
	<path class="st1" d="M703.2,122.012c11.135-7.968,19.198-16.031,22.654-19.871c1.536-1.728,7.008-7.679,7.008-15.839
		c0-5.279-2.784-9.695-8.544-9.695c-8.831,0-9.119,8.832-9.119,13.823v1.248L703.2,90.526v-0.48c0-8.159,2.496-13.439,4.607-16.318
		c2.112-2.977,7.775-8.16,17.566-8.16c7.68,0,12.479,3.264,14.688,5.28c4.224,3.743,6.048,9.503,6.048,15.07
		c0,1.92-0.192,5.952-2.496,10.752c-3.84,8.062-11.327,13.727-17.854,19.294c-2.304,1.92-4.512,3.84-6.912,5.472h28.414v9.983H703.2
		V122.012z"/>
	<path class="st1" d="M778.654,132.283c-22.558,0-23.518-22.942-23.518-33.598c0-23.711,10.175-33.118,24.094-33.118
		c12.191,0,23.23,8.447,23.23,33.214C802.461,125.371,789.982,132.283,778.654,132.283z M778.847,121.628
		c9.216,0,11.135-9.216,11.135-22.654c0-9.312-0.384-22.751-10.942-22.751c-9.695,0-11.52,11.039-11.52,23.135
		C767.52,106.557,767.52,121.628,778.847,121.628z"/>
</g>
</svg>
