<?xml version="1.0" encoding="utf-8"?>
<!-- Generator: Adobe Illustrator 24.1.0, SVG Export Plug-In . SVG Version: 6.00 Build 0)  -->
<svg version="1.1" id="Layer_1_Freeman" xmlns="http://www.w3.org/2000/svg" xmlns:xlink="http://www.w3.org/1999/xlink" x="0px" y="0px"
	 viewBox="0 0 1417.4 784.2" style="enable-background:new 0 0 1417.4 784.2;" xml:space="preserve">
<style type="text/css">
	.st0{fill:#FFFFFF;}
</style>
<g>
	<path class="st0" d="M1157.1,334.9h39.3l56,79.5h0.4v-79.5h29v114.4h-37.9l-57.5-81.5h-0.3v81.5h-29V334.9 M66.2,334.9h88.3v23.3
		H95.2v23.3h54.9v23.3H95.2v44.6h-29V334.9 M221.4,334.9h50.8c27,0,49.6,8.1,49.6,34.8c0,16-9.9,28.4-28.4,31.3l33.3,48.3h-34.6
		l-27.5-45.8h-14.2v45.8h-29.1V334.9 M250.5,382.3h17.1c10.6,0,24.3,0,24.3-12.7c0-11.4-11.9-13.2-22.5-13.2h-18.9V382.3z
		 M396.2,334.9h89.4v23.3h-60.4v21.4h57.1v23.3h-57.1v23.3H489v23.3h-92.8V334.9 M578.1,334.9h89.4v23.3h-60.4v21.4h57.1v23.3h-57.1
		v23.3h63.7v23.3h-92.7V334.9 M754.4,334.9h43.9l30.3,74.7h0.4l30.5-74.7h43.7v114.4h-29v-87.8h-0.4l-34.6,87.8h-22.1l-33.3-87.8
		h-0.3v87.8h-29V334.9 M1016.5,334.9h24l57.2,114.4h-32.7l-11.3-24.2h-50.9l-11.2,24.2h-31.8L1016.5,334.9 M1027.6,368.2l-16,35.5
		h32.2L1027.6,368.2z M1333.8,369.6c-9.6,0-17.3-7.8-17.3-17.4c0-9.6,7.8-17.3,17.4-17.3c9.4,0,17.1,7.6,17.3,17
		c0.2,9.5-7.3,17.4-16.8,17.7C1334.2,369.6,1334,369.6,1333.8,369.6z M1333.8,336.6c-8.6,0.1-15.5,7.1-15.4,15.6c0,0,0,0,0,0.1
		c-0.1,8.5,6.7,15.5,15.3,15.6c0.1,0,0.2,0,0.3,0c8.5,0,15.4-6.8,15.6-15.3c0.3-8.6-6.4-15.7-15-16
		C1334.3,336.6,1334,336.6,1333.8,336.6L1333.8,336.6z M1333.3,341.3c5.3,0,7.8,1.9,7.8,6.4c0.4,3-1.7,5.9-4.7,6.4l5,9.5h-3.9
		l-4.4-9.5h-2.7v9.2h-3.3v-21.9H1333.3z M1330.4,351.1h2.8c3.1,0,4.5-1.1,4.5-3.4c0-2.4-1.4-3.4-4.8-3.4h-2.5V351.1z"/>
</g>
</svg>
