<svg xmlns="http://www.w3.org/2000/svg" width="174.971" height="23.304" viewBox="0 0 174.971 23.304">
    <defs>
        <style>
            .prefix__cls-1{fill:#fff}
        </style>
    </defs>
    <g id="prefix__Group_75" data-name="Group 75" transform="translate(563.392 239.612)">
        <g id="prefix__Group_60" data-name="Group 60" transform="translate(-513.129 -239.612)">
            <path id="prefix__Path_115" d="M-226.2-179.667v-4.42l-5.32 2.955v4.42l1.762-.979zm-4.31-1.01l3.3-1.833v2.389l-3.3 1.833z" class="prefix__cls-1" data-name="Path 115" transform="translate(235.712 193.201)"/>
            <path id="prefix__Path_116" d="M-228.568-149.253l3.018 1.677 5.32-2.956-3.018-1.677z" class="prefix__cls-1" data-name="Path 116" transform="translate(233.243 166.552)"/>
            <path id="prefix__Path_117" d="M-246.607-239.612l-10.479 5.826v11.652l10.479 5.826 10.479-5.826v-11.652zm.8 1.34l1.886 1.049v2.1l-1.886-1.049zm.244 5.846v-1.554l1.4.777v1.554zm1.048 3.3v.777l-.7-.389v-.777zm1.648 5.936l-6.288 3.5a.5.5 0 0 1-.242.062.5.5 0 0 1-.242-.062l-3.986-2.216a.464.464 0 0 1-.242-.4v-5.5a.463.463 0 0 1 .242-.4l6.288-3.5a.5.5 0 0 1 .484 0 .463.463 0 0 1 .242.4v5.231l3.744 2.082a.463.463 0 0 1 .242.4.463.463 0 0 1-.238.404zm2.194-2.635l-1.4-.777v-1.554l1.4.777zm.245-3.476l-1.886-1.049v-2.1l1.886 1.049zm.244-3.476l-2.375-1.321v-2.641l2.375 1.32zm3.249 9.3l-1.886-1.049v-2.1l1.886 1.049zm.245-3.476l-2.375-1.321v-2.641l2.375 1.321z" class="prefix__cls-1" data-name="Path 117" transform="translate(257.086 239.612)"/>
        </g>
        <path id="prefix__Path_118" d="M-147.066-238.331h-1.281v-1.281h-.931v1.281h-1.281v.931h1.281v1.281h.931v-1.281h1.281z" class="prefix__cls-1" data-name="Path 118" transform="translate(-345.096)"/>
        <g id="prefix__OnlineEvent_Pro" data-name="OnlineEvent Pro" transform="translate(-486.786 -232.911)">
            <g id="prefix__Group_61" data-name="Group 61">
                <path id="prefix__Path_119" d="M329.555-192.938h.973v-2.372h1.6v2.372h1.426v1.133h-1.426v3.3a1.1 1.1 0 0 0 .16.706.87.87 0 0 0 .6.2 2.685 2.685 0 0 0 .666-.08v1.346a7.36 7.36 0 0 1-1.146.107c-1.426 0-1.879-.52-1.879-1.612v-3.971h-.973z" class="prefix__cls-1" data-name="Path 119" transform="translate(-259.628 195.881)"/>
                <path id="prefix__Path_120" d="M388.39-197.586a3.028 3.028 0 0 1 3.345 3.079c0 1.706-.986 3.078-3.438 3.078h-1.8v3.2l-1.759.052v-9.408zm-1.892 4.718h1.546c1.253 0 1.879-.586 1.879-1.692 0-1.519-1.226-1.572-2.079-1.572H386.5z" class="prefix__cls-1" data-name="Path 120" transform="translate(-305.764 197.784)"/>
                <path id="prefix__Path_121" d="M436.171-181.91v.946a2.126 2.126 0 0 1 1.985-1.093h.133v1.639a1.923 1.923 0 0 0-2 1.226 3.361 3.361 0 0 0-.12 1.093v2.852h-1.546v-6.663z" class="prefix__cls-1" data-name="Path 121" transform="translate(-347.471 184.8)"/>
                <path id="prefix__Path_122" d="M464.69-175.319a3.389 3.389 0 0 1-3.464-3.558 3.356 3.356 0 0 1 3.411-3.5 3.412 3.412 0 0 1 3.438 3.557 3.292 3.292 0 0 1-3.385 3.501zm0-1.466a1.8 1.8 0 0 0 1.719-2.012 1.913 1.913 0 0 0-1.8-2.145c-.933 0-1.719.68-1.719 2.025a1.893 1.893 0 0 0 1.8 2.132z" class="prefix__cls-1" data-name="Path 122" transform="translate(-369.71 185.072)"/>
                <path id="prefix__Path_123" d="M-92.428-198.793c2.865 0 4.5 2.345 4.5 4.89 0 2.132-1.159 5-4.544 5-2.772 0-4.477-2.292-4.477-4.93.004-2.761 1.803-4.96 4.521-4.96zm.013 8.248c1.4 0 2.718-1.079 2.718-3.211 0-1.679-.879-3.425-2.745-3.425-1.546 0-2.692 1.213-2.692 3.278.001 1.466.708 3.358 2.72 3.358z" class="prefix__cls-1" data-name="Path 123" transform="translate(96.945 198.793)"/>
                <path id="prefix__Path_124" d="M-29.922-181.606v.786a2.575 2.575 0 0 1 2.052-.986 2.026 2.026 0 0 1 2.159 2.225v4.637h-1.573v-3.744c0-.733-.186-1.559-1.172-1.559a1.266 1.266 0 0 0-.839.306c-.48.4-.626.959-.626 2.105v2.892h-1.613v-6.663z" class="prefix__cls-1" data-name="Path 124" transform="translate(42.259 184.591)"/>
                <path id="prefix__Path_125" d="M15.151-187.922v-9.407h1.626v9.407z" class="prefix__cls-1" data-name="Path 125" transform="translate(3.228 197.569)"/>
                <path id="prefix__Path_126" d="M36.209-195.148v-1.613h1.586v1.613zm0 7.7v-6.663h1.586v6.663z" class="prefix__cls-1" data-name="Path 126" transform="translate(-14.378 197.094)"/>
                <path id="prefix__Path_127" d="M58.668-181.606v.786a2.575 2.575 0 0 1 2.052-.986 2.026 2.026 0 0 1 2.159 2.225v4.637h-1.573v-3.744c0-.733-.186-1.559-1.172-1.559a1.266 1.266 0 0 0-.839.306c-.48.4-.626.959-.626 2.105v2.892h-1.614v-6.663z" class="prefix__cls-1" data-name="Path 127" transform="translate(-31.806 184.591)"/>
                <path id="prefix__Path_128" d="M103.2-177.955a1.807 1.807 0 0 0 1.879 1.652 1.924 1.924 0 0 0 1.746-.919l1.359.786a3.887 3.887 0 0 1-3.252 1.692 3.307 3.307 0 0 1-3.424-3.571 3.218 3.218 0 0 1 3.345-3.491c2.545 0 3.278 2.039 3.278 3.851zm3.172-1.173a1.438 1.438 0 0 0-1.492-1.4 1.6 1.6 0 0 0-1.626 1.4z" class="prefix__cls-1" data-name="Path 128" transform="translate(-68.969 184.591)"/>
                <path id="prefix__Path_129" d="M152.23-187.922v-9.407h6.689v1.572h-4.957v2.212h4.544v1.519h-4.544v2.519h5.29v1.586z" class="prefix__cls-1" data-name="Path 129" transform="translate(-111.376 197.569)"/>
                <path id="prefix__Path_130" d="M201.868-173.924h-1.706L198-180.587h1.652l1.39 4.587 1.359-4.584h1.665z" class="prefix__cls-1" data-name="Path 130" transform="translate(-149.645 183.572)"/>
                <path id="prefix__Path_131" d="M240.057-177.955a1.806 1.806 0 0 0 1.879 1.652 1.925 1.925 0 0 0 1.746-.919l1.359.786a3.887 3.887 0 0 1-3.251 1.692 3.307 3.307 0 0 1-3.425-3.571 3.218 3.218 0 0 1 3.345-3.491c2.545 0 3.278 2.039 3.278 3.851zm3.171-1.173a1.437 1.437 0 0 0-1.492-1.4 1.6 1.6 0 0 0-1.626 1.4z" class="prefix__cls-1" data-name="Path 131" transform="translate(-183.389 184.591)"/>
                <path id="prefix__Path_132" d="M289.262-181.606v.786a2.575 2.575 0 0 1 2.052-.986 2.026 2.026 0 0 1 2.159 2.225v4.637H291.9v-3.744c0-.733-.187-1.559-1.172-1.559a1.267 1.267 0 0 0-.84.306c-.48.4-.626.959-.626 2.105v2.892h-1.612v-6.663z" class="prefix__cls-1" data-name="Path 132" transform="translate(-224.593 184.591)"/>
                <path id="prefix__Path_133" d="M359.121-187.465a.973.973 0 0 1 .079-.389 1 1 0 0 1 .216-.317 1.032 1.032 0 0 1 .319-.213.963.963 0 0 1 .389-.079.963.963 0 0 1 .389.079 1.039 1.039 0 0 1 .319.213 1 1 0 0 1 .216.317.967.967 0 0 1 .079.389.953.953 0 0 1-.079.387 1 1 0 0 1-.216.314 1.007 1.007 0 0 1-.319.211.99.99 0 0 1-.389.077.99.99 0 0 1-.389-.077 1 1 0 0 1-.319-.211 1 1 0 0 1-.216-.314.958.958 0 0 1-.079-.387zm.158 0a.817.817 0 0 0 .066.325.879.879 0 0 0 .18.271.828.828 0 0 0 .268.182.829.829 0 0 0 .33.066.83.83 0 0 0 .33-.066.834.834 0 0 0 .268-.182.877.877 0 0 0 .18-.271.818.818 0 0 0 .066-.325.83.83 0 0 0-.066-.33.849.849 0 0 0-.18-.268.851.851 0 0 0-.268-.18.83.83 0 0 0-.33-.066.828.828 0 0 0-.33.066.845.845 0 0 0-.268.18.85.85 0 0 0-.18.268.829.829 0 0 0-.066.33zm1.086.55l-.242-.436h-.158v.436h-.265v-1.126h.483a.674.674 0 0 1 .154.018.441.441 0 0 1 .137.057.3.3 0 0 1 .1.108.35.35 0 0 1 .037.169.282.282 0 0 1-.064.189.379.379 0 0 1-.16.11l.3.475zm-.193-.629a.179.179 0 0 0 .112-.04.128.128 0 0 0 .05-.106.106.106 0 0 0-.057-.1.228.228 0 0 0-.105-.031h-.207v.277z" class="prefix__cls-1" data-name="Path 133" transform="translate(-284.346 190.158)"/>
            </g>
        </g>
        <g id="prefix__Group_62" data-name="Group 62" transform="translate(-563.392 -232.347)">
            <path id="prefix__Path_134" d="M-559.657-195.368c1.2 0 1.937.265 1.937 1.547a4.107 4.107 0 0 1-.153.99l-.181.766c-.363 1.519-.892 2.049-2.342 2.049h-1.282l-1.031 4.488h-.683l2.272-9.84zm-1.9 4.78h1.059c1.185 0 1.491-.334 1.77-1.477l.167-.7a4.917 4.917 0 0 0 .139-.99c0-.808-.293-1.045-1.352-1.045h-.808z" class="prefix__cls-1" data-name="Path 134" transform="translate(563.392 195.368)"/>
            <path id="prefix__Path_135" d="M-530.766-173.1c-.251 1.157-.6 1.951-1.84 1.951-.948 0-1.547-.5-1.547-1.3a4.647 4.647 0 0 1 .139-.934l.669-3.038c.223-1 .572-1.868 1.854-1.868.92 0 1.519.516 1.519 1.3a4.4 4.4 0 0 1-.139.934zm.056-2.983a4.137 4.137 0 0 0 .111-.78c0-.53-.362-.85-.976-.85-.892 0-1.059.822-1.226 1.589l-.613 2.774a4.1 4.1 0 0 0-.112.794c0 .516.363.836.976.836.878 0 1.031-.683 1.226-1.589z" class="prefix__cls-1" data-name="Path 135" transform="translate(538.947 181.083)"/>
            <path id="prefix__Path_136" d="M-500.843-170.746h-.6l.4-5.631-2.328 5.631h-.613l.362-6.941h.6l-.4 5.868 2.453-5.868h.488l-.376 5.8 2.355-5.8h.613z" class="prefix__cls-1" data-name="Path 136" transform="translate(513.72 180.586)"/>
            <path id="prefix__Path_137" d="M-469.1-174.743l-.362 1.575a2.885 2.885 0 0 0-.084.6.786.786 0 0 0 .892.808c.627 0 .934-.209 1.2-1.38l.125-.544h.6l-.153.655c-.321 1.422-.836 1.812-1.8 1.812-.934 0-1.463-.46-1.463-1.268a3.26 3.26 0 0 1 .1-.7l.808-3.5a2.573 2.573 0 0 1 .418-1.087 1.6 1.6 0 0 1 1.352-.6c.92 0 1.45.474 1.45 1.282a4.176 4.176 0 0 1-.139.934l-.32 1.408zm2.132-.5l.265-1.143a2.668 2.668 0 0 0 .084-.613c0-.544-.32-.836-.906-.836a1 1 0 0 0-.808.348 2.186 2.186 0 0 0-.376 1.018l-.279 1.227z" class="prefix__cls-1" data-name="Path 137" transform="translate(485.438 181.154)"/>
            <path id="prefix__Path_138" d="M-443.072-178.54l-.279 1.185a2.323 2.323 0 0 1 1.77-1.352l-.167.753a2.29 2.29 0 0 0-1.909 2.007l-1 4.348h-.585l1.6-6.941z" class="prefix__cls-1" data-name="Path 138" transform="translate(464.617 181.439)"/>
            <path id="prefix__Path_139" d="M-425.331-174.743l-.362 1.575a2.885 2.885 0 0 0-.084.6.786.786 0 0 0 .892.808c.627 0 .934-.209 1.2-1.38l.125-.544h.6l-.153.655c-.321 1.422-.836 1.812-1.8 1.812-.934 0-1.463-.46-1.463-1.268a3.255 3.255 0 0 1 .1-.7l.808-3.5a2.571 2.571 0 0 1 .418-1.087 1.6 1.6 0 0 1 1.352-.6c.92 0 1.45.474 1.45 1.282a4.174 4.174 0 0 1-.139.934l-.321 1.408zm2.132-.5l.265-1.143a2.67 2.67 0 0 0 .084-.613c0-.544-.321-.836-.906-.836a1 1 0 0 0-.808.348 2.183 2.183 0 0 0-.376 1.018l-.279 1.227z" class="prefix__cls-1" data-name="Path 139" transform="translate(448.841 181.154)"/>
            <path id="prefix__Path_140" d="M-395.182-195.368l-2.272 9.84h-.557l.1-.432a1.381 1.381 0 0 1-1.143.488 1.164 1.164 0 0 1-1.31-1.185 4.238 4.238 0 0 1 .125-.808l.725-3.108c.2-.808.474-1.965 1.784-1.965a1.175 1.175 0 0 1 1.157.655l.808-3.484zm-1.7 4.864a2.4 2.4 0 0 0 .056-.516.9.9 0 0 0-.892-.976c-.85 0-1.045.7-1.227 1.477l-.725 3.164a2.967 2.967 0 0 0-.1.585c0 .5.334.78.906.78a1.224 1.224 0 0 0 1.171-1.031z" class="prefix__cls-1" data-name="Path 140" transform="translate(427.096 195.368)"/>
            <path id="prefix__Path_141" d="M-354.757-195.368l-.78 3.359a1.522 1.522 0 0 1 1.254-.585 1.12 1.12 0 0 1 1.185 1.213 4.2 4.2 0 0 1-.139.906l-.767 3.331c-.251 1.115-.808 1.672-1.645 1.672a1.258 1.258 0 0 1-1.2-.641l-.139.585h-.627l2.272-9.84zm.962 4.78a3.146 3.146 0 0 0 .1-.669.73.73 0 0 0-.794-.808 1.25 1.25 0 0 0-.822.307c-.279.237-.348.446-.558 1.324l-.655 2.8a3.584 3.584 0 0 0-.111.669.945.945 0 0 0 1.018.962c.53 0 .864-.418 1.073-1.352z" class="prefix__cls-1" data-name="Path 141" transform="translate(391.353 195.368)"/>
            <path id="prefix__Path_142" d="M-330.91-177.687l-3.68 7.791c-.571 1.2-.99 1.408-1.631 1.408a3.573 3.573 0 0 1-.655-.07l.125-.53a2.178 2.178 0 0 0 .585.07c.46 0 .78-.307 1.171-1.185l.265-.585s.112-6.356.125-6.9h.585c-.028.892-.167 5.77-.167 5.77l2.648-5.77z" class="prefix__cls-1" data-name="Path 142" transform="translate(374.014 180.586)"/>
        </g>
    </g>
</svg>
