<?xml version="1.0" encoding="utf-8"?>
<!-- Generator: Adobe Illustrator 24.1.0, SVG Export Plug-In . SVG Version: 6.00 Build 0)  -->
<svg version="1.1" id="Layer_1_Instagram" xmlns="http://www.w3.org/2000/svg" xmlns:xlink="http://www.w3.org/1999/xlink" x="0px" y="0px"
	 viewBox="0 0 80 80" style="enable-background:new 0 0 80 80;" xml:space="preserve">
<style type="text/css">
	.st0{fill:none;}
	.st1{fill:#0066b2;}
</style>
<rect x="0.1" y="0.1" class="st0" width="80" height="80"/>
<rect x="0.5" y="0.1" class="st0" width="80" height="80"/>
<g>
	<path class="st1" d="M40,22.8c5.6,0,6.3,0,8.5,0.1c2.1,0.1,3.2,0.4,3.9,0.7c1,0.4,1.7,0.8,2.4,1.6c0.7,0.7,1.2,1.4,1.6,2.4
		c0.3,0.7,0.6,1.9,0.7,3.9c0.1,2.2,0.1,2.9,0.1,8.5s0,6.3-0.1,8.5c-0.1,2.1-0.4,3.2-0.7,3.9c-0.4,1-0.8,1.7-1.6,2.4
		c-0.7,0.7-1.4,1.2-2.4,1.6c-0.7,0.3-1.9,0.6-3.9,0.7c-2.2,0.1-2.9,0.1-8.5,0.1s-6.3,0-8.5-0.1c-2.1-0.1-3.2-0.4-3.9-0.7
		c-1-0.4-1.7-0.8-2.4-1.6c-0.7-0.7-1.2-1.4-1.6-2.4c-0.3-0.7-0.6-1.9-0.7-3.9c-0.1-2.2-0.1-2.9-0.1-8.5s0-6.3,0.1-8.5
		c0.1-2.1,0.4-3.2,0.7-3.9c0.4-1,0.8-1.7,1.6-2.4c0.7-0.7,1.4-1.2,2.4-1.6c0.7-0.3,1.9-0.6,3.9-0.7C33.7,22.8,34.4,22.8,40,22.8
		L40,22.8z M40,19c-5.7,0-6.5,0-8.7,0.1s-3.8,0.5-5.1,1c-1.4,0.5-2.6,1.3-3.7,2.4c-1.2,1.2-1.9,2.4-2.4,3.7c-0.5,1.3-0.9,2.9-1,5.1
		C19,33.6,19,34.3,19,40s0,6.5,0.1,8.7s0.5,3.8,1,5.1c0.5,1.4,1.3,2.6,2.4,3.7c1.2,1.2,2.4,1.9,3.7,2.4s2.9,0.9,5.1,1
		c2.3,0.1,3,0.1,8.7,0.1s6.5,0,8.7-0.1s3.8-0.5,5.1-1c1.4-0.5,2.6-1.3,3.7-2.4c1.2-1.2,1.9-2.4,2.4-3.7s0.9-2.9,1-5.1
		c0.1-2.3,0.1-3,0.1-8.7s0-6.5-0.1-8.7s-0.5-3.8-1-5.1c-0.5-1.4-1.2-2.6-2.4-3.8c-1.2-1.2-2.4-1.9-3.7-2.4s-2.9-0.9-5.1-1
		C46.5,19,45.8,19,40,19L40,19L40,19z"/>
	<path class="st1" d="M40,29.3c-6,0-10.9,4.9-10.9,10.9S34,51.1,40,51.1s10.9-5,10.9-11C50.9,34.2,46,29.3,40,29.3z M40,47.2
		c-3.9,0-7-3.2-7-7s3.2-7,7-7s7,3.2,7,7S43.9,47.2,40,47.2z"/>
	<path class="st1" d="M53.9,28.9c0,1.4-1.1,2.5-2.5,2.5s-2.5-1.1-2.5-2.5s1.1-2.5,2.5-2.5C52.7,26.3,53.9,27.5,53.9,28.9z"/>
</g>
</svg>
