<svg xmlns="http://www.w3.org/2000/svg" width="26" height="25.871" viewBox="0 0 26 25.871">
    <defs>
        <style>
            .prefix__cls-1{fill:none}.prefix__cls-2{fill:#fff}
        </style>
    </defs>
    <g id="prefix__Instagram" transform="translate(-.1 -.1)">
        <path id="prefix__Rectangle_11" d="M0 0H25.871V25.871H0z" class="prefix__cls-1" data-name="Rectangle 11" transform="translate(.1 .1)"/>
        <path id="prefix__Rectangle_12" d="M0 0H25.871V25.871H0z" class="prefix__cls-1" data-name="Rectangle 12" transform="translate(.229 .1)"/>
        <g id="prefix__Group_3" data-name="Group 3" transform="translate(6.212 6.212)">
            <path id="prefix__Path_19" d="M25.791 20.229c1.811 0 2.037 0 2.749.032a3.6 3.6 0 0 1 1.261.226 1.827 1.827 0 0 1 .776.517 2.18 2.18 0 0 1 .517.776 3.777 3.777 0 0 1 .226 1.261c.032.711.032.938.032 2.749s0 2.037-.032 2.749a3.6 3.6 0 0 1-.226 1.261 1.827 1.827 0 0 1-.517.776 2.18 2.18 0 0 1-.776.517 3.777 3.777 0 0 1-1.261.226c-.711.032-.938.032-2.749.032s-2.037 0-2.749-.032a3.6 3.6 0 0 1-1.261-.226 1.827 1.827 0 0 1-.781-.516 2.18 2.18 0 0 1-.517-.776 3.777 3.777 0 0 1-.226-1.261c-.032-.711-.032-.938-.032-2.749s0-2.037.032-2.749a3.6 3.6 0 0 1 .226-1.261A1.827 1.827 0 0 1 21 21a2.18 2.18 0 0 1 .776-.517 3.777 3.777 0 0 1 1.261-.226c.711-.032.938-.032 2.749-.032zm0-1.229c-1.843 0-2.1 0-2.813.032a5.112 5.112 0 0 0-1.649.323 3.185 3.185 0 0 0-1.2.776 3.3 3.3 0 0 0-.776 1.2 5.112 5.112 0 0 0-.323 1.649c-.032.744-.032.97-.032 2.813s0 2.1.032 2.813a5.112 5.112 0 0 0 .323 1.649 3.185 3.185 0 0 0 .776 1.2 3.3 3.3 0 0 0 1.2.776 5.112 5.112 0 0 0 1.649.323c.744.032.97.032 2.813.032s2.1 0 2.813-.032a5.112 5.112 0 0 0 1.649-.323 3.185 3.185 0 0 0 1.2-.776 3.3 3.3 0 0 0 .776-1.2 5.112 5.112 0 0 0 .321-1.655c.032-.744.032-.97.032-2.813s0-2.1-.032-2.813a5.112 5.112 0 0 0-.323-1.649 3.155 3.155 0 0 0-.777-1.225 3.3 3.3 0 0 0-1.2-.776A5.112 5.112 0 0 0 28.6 19z" class="prefix__cls-2" data-name="Path 19" transform="translate(-19 -19)"/>
            <path id="prefix__Path_20" d="M32.625 29.3a3.525 3.525 0 1 0 3.525 3.493 3.533 3.533 0 0 0-3.525-3.493zm0 5.789a2.264 2.264 0 1 1 2.264-2.264 2.27 2.27 0 0 1-2.264 2.264z" class="prefix__cls-2" data-name="Path 20" transform="translate(-25.834 -25.969)"/>
            <path id="prefix__Path_21" d="M50.517 27.2a.808.808 0 1 1-.808-.808.8.8 0 0 1 .808.808z" class="prefix__cls-2" data-name="Path 21" transform="translate(-39.231 -24.003)"/>
        </g>
    </g>
</svg>
