<?xml version="1.0" encoding="utf-8"?>
<!-- Generator: Adobe Illustrator 24.1.0, SVG Export Plug-In . SVG Version: 6.00 Build 0)  -->
<svg version="1.1" id="Layer_1_LinkedIn" xmlns="http://www.w3.org/2000/svg" xmlns:xlink="http://www.w3.org/1999/xlink" x="0px" y="0px"
	 viewBox="0 0 80 80" style="enable-background:new 0 0 80 80;" xml:space="preserve">
<style type="text/css">
	.st0{fill:none;}
	.st1{fill:#0066b2;}
</style>
<rect x="0.1" y="0.1" class="st0" width="80" height="80"/>
<rect x="3.5" y="-0.1" class="st0" width="80" height="80"/>
<rect x="2.9" y="0.1" class="st0" width="80" height="80"/>
<rect x="0.5" y="0.1" class="st0" width="80" height="80"/>
<g>
	<path class="st1" d="M34.3,32.9h7.9v4h0.1c1.1-2,3.8-4,7.8-4c8.3,0,9.9,5.2,9.9,11.9v13.7h-8.2V46.4c0-2.9-0.1-6.6-4.3-6.6
		c-4.3,0-4.9,3.2-4.9,6.4v12.4h-8.2L34.3,32.9L34.3,32.9z"/>
	<path class="st1" d="M20,32.9h8.5v25.6H20V32.9z"/>
	<path class="st1" d="M28.6,25.8c0,2.4-1.9,4.3-4.3,4.3S20,28.2,20,25.8s1.9-4.3,4.3-4.3S28.6,23.5,28.6,25.8z"/>
</g>
</svg>
