<svg xmlns="http://www.w3.org/2000/svg" width="26" height="25.002" viewBox="0 0 26 25.002">
    <defs>
        <style>
            .prefix__cls-1{fill:none}.prefix__cls-2{fill:#fff}
        </style>
    </defs>
    <g id="prefix__LinkedIn" transform="translate(-.1 .1)">
        <path id="prefix__Rectangle_14" d="M0 0H24.94V24.94H0z" class="prefix__cls-1" data-name="Rectangle 14" transform="translate(.1 -.038)"/>
        <path id="prefix__Rectangle_15" d="M0 0H24.94V24.94H0z" class="prefix__cls-1" data-name="Rectangle 15" transform="translate(1.16 -.1)"/>
        <path id="prefix__Rectangle_16" d="M0 0H24.94V24.94H0z" class="prefix__cls-1" data-name="Rectangle 16" transform="translate(.973 -.038)"/>
        <path id="prefix__Rectangle_17" d="M0 0H24.94V24.94H0z" class="prefix__cls-1" data-name="Rectangle 17" transform="translate(.225 -.038)"/>
        <g id="prefix__Group_4" data-name="Group 4" transform="translate(6.304 6.634)">
            <path id="prefix__Path_23" d="M34.3 32.9h2.463v1.247h.031a2.709 2.709 0 0 1 2.432-1.247c2.588 0 3.086 1.621 3.086 3.71v4.271h-2.556v-3.772c0-.9-.031-2.058-1.341-2.058-1.341 0-1.528 1-1.528 2v3.866h-2.556L34.3 32.9z" class="prefix__cls-2" data-name="Path 23" transform="translate(-29.842 -29.346)"/>
            <path id="prefix__Path_24" d="M20 32.9h2.65v7.981H20z" class="prefix__cls-2" data-name="Path 24" transform="translate(-20 -29.346)"/>
            <path id="prefix__Path_25" d="M22.681 22.841a1.341 1.341 0 1 1-1.34-1.341 1.351 1.351 0 0 1 1.34 1.341z" class="prefix__cls-2" data-name="Path 25" transform="translate(-20 -21.5)"/>
        </g>
    </g>
</svg>
