<?xml version="1.0" encoding="utf-8"?>
<!-- Generator: Adobe Illustrator 24.1.0, SVG Export Plug-In . SVG Version: 6.00 Build 0)  -->
<svg version="1.1" id="Layer_1_Twitter" xmlns="http://www.w3.org/2000/svg" xmlns:xlink="http://www.w3.org/1999/xlink" x="0px" y="0px"
	 viewBox="0 0 80 80" style="enable-background:new 0 0 80 80;" xml:space="preserve">
<style type="text/css">
	.st0{fill:none;}
	.st1{fill:#0066b2;}
</style>
<rect x="0.1" y="0.1" class="st0" width="80" height="80"/>
<rect x="-2.2" y="-0.2" class="st0" width="80" height="80"/>
<path class="st1" d="M59.3,27.9c-1.5,0.6-3,1.1-4.6,1.3c1.7-1,2.9-2.6,3.5-4.4c-1.5,1-3.2,1.6-5,1.9c-1.5-1.6-3.6-2.5-5.8-2.5
	c-4.4,0-7.9,3.6-7.9,8l0,0c0,0.6,0,1.3,0.2,1.9c-6.4-0.4-12.2-3.5-16.2-8.5c-0.7,1.2-1,2.6-1,4c0,2.7,1.3,5.2,3.5,6.8
	c-1.3,0-2.5-0.4-3.5-1.1l0,0c0,3.8,2.6,7,6.2,7.8c-0.7,0.2-1.4,0.2-2.1,0.2c-0.5,0-1,0-1.5-0.2c1,3.2,3.9,5.4,7.3,5.5
	c-2.8,2.2-6.2,3.4-9.8,3.4c-0.6,0-1.3,0-1.9-0.2c3.5,2.7,7.7,4.1,12.1,4c14.6,0,22.5-12.3,22.5-22.8v-1.1
	C56.8,30.8,58.2,29.5,59.3,27.9z"/>
<rect x="2" y="-0.5" class="st0" width="80" height="80"/>
<rect x="3.5" y="-0.1" class="st0" width="80" height="80"/>
<rect x="2.9" y="0.1" class="st0" width="80" height="80"/>
<rect x="0.5" y="0.1" class="st0" width="80" height="80"/>
</svg>
