<?xml version="1.0" encoding="utf-8"?>
<!-- Generator: Adobe Illustrator 24.1.0, SVG Export Plug-In . SVG Version: 6.00 Build 0)  -->
<svg version="1.1" id="Layer_1_Youtube" xmlns="http://www.w3.org/2000/svg" xmlns:xlink="http://www.w3.org/1999/xlink" x="0px" y="0px"
	 viewBox="0 0 80 80" style="enable-background:new 0 0 80 80;" xml:space="preserve">
<style type="text/css">
	.st0{fill:none;}
	.st1{fill:#0066b2;}
</style>
<rect x="0.1" y="0.1" class="st0" width="80" height="80"/>
<path class="st1" d="M52.2,24.2c2.5,0.2,5.6,0,7.4,2c2,2,2.2,5.1,2.2,7.6c0.2,2.9,0.2,7.1,0.2,9.8c-0.2,2.7,0,5.9-1.2,8.3
	c-1.2,2.7-3.4,3.7-6.1,3.9c-2.9,0.2-21.1,0.2-27,0c-2.7-0.2-5.9-0.2-7.8-2.5c-1.7-2-1.7-4.9-2-7.4c0-2.9,0-7.1,0-10
	c0-2.7,0-5.9,1.2-8.3c1.2-2.5,3.7-2.9,6.4-3.2C28.4,24.2,46.3,23.9,52.2,24.2z M35,32.5v14.7l13.5-7.4L35,32.5z"/>
</svg>
