<svg xmlns="http://www.w3.org/2000/svg" width="24" height="24" viewBox="0 0 24 24">
    <path id="Path_1290" fill="#fff" d="M21 15a6 6 0 0 0-3.333-5.373v2.947l3.267 3.267A5.643 5.643 0 0 0 21 15zm3.333 0a9.124 9.124 0 0 1-.72 3.52l2.013 2.013A11.729 11.729 0 0 0 27 15a12 12 0 0 0-9.333-11.693v2.746A9.34 9.34 0 0 1 24.333 15zM4.693 3L3 4.693 9.307 11H3v8h5.333L15 25.667v-8.974l5.667 5.667a9.231 9.231 0 0 1-3 1.573v2.747a11.986 11.986 0 0 0 4.92-2.413L25.307 27 27 25.307l-12-12zM15 4.333L12.213 7.12 15 9.907z" data-name="Path 1290" transform="translate(-3 -3)"/>
</svg>
