<svg width="16" height="16" viewBox="0 0 16 16" fill="none" xmlns="http://www.w3.org/2000/svg">
<g clip-path="url(#clip0)">
<path d="M16 12.6033C16.0009 12.1743 15.883 11.7534 15.6594 11.3873C15.4359 11.0211 15.1154 10.7239 14.7333 10.5287L12.7553 9.51001C12.7284 9.49584 12.7059 9.47453 12.6903 9.44843C12.6746 9.42233 12.6665 9.39244 12.6667 9.36201V8.29534C12.6666 8.26841 12.6731 8.24187 12.6857 8.21804C12.6982 8.19422 12.7164 8.17383 12.7387 8.15868C13.0217 7.94413 13.2515 7.66726 13.4102 7.34955C13.569 7.03184 13.6524 6.68183 13.654 6.32668C13.6559 6.30298 13.6628 6.27997 13.6743 6.25916C13.6858 6.23835 13.7016 6.22023 13.7207 6.20601C13.8438 6.09809 13.9403 5.96317 14.0026 5.81179C14.0649 5.6604 14.0914 5.49666 14.08 5.33334C14.0951 5.04122 13.9967 4.75457 13.8053 4.53334C13.7843 4.51172 13.7696 4.4848 13.7626 4.45545C13.7557 4.4261 13.7569 4.39542 13.766 4.36668C14.0239 3.69294 14.1011 2.96348 13.99 2.25068C13.7593 1.32801 12.504 1.00001 11.5 1.00001C10.7736 0.969721 10.0567 1.17401 9.45534 1.58268C9.43822 1.5967 9.42409 1.61401 9.41378 1.63359C9.40347 1.65318 9.3972 1.67463 9.39534 1.69668C9.39334 1.71867 9.39573 1.74083 9.40236 1.76189C9.409 1.78295 9.41976 1.80248 9.43401 1.81935C10.2047 2.76382 10.6453 3.93444 10.6887 5.15268C10.7793 6.49668 10.908 6.62534 11.222 6.93668C11.3617 7.07506 11.4698 7.24205 11.5389 7.42618C11.6079 7.61031 11.6363 7.80721 11.622 8.00334C11.6083 8.19844 11.5519 8.38814 11.4568 8.559C11.3616 8.72986 11.23 8.87769 11.0713 8.99201C10.6719 9.27904 10.2384 9.5153 9.78067 9.69534C9.75058 9.70683 9.72446 9.72678 9.70547 9.7528C9.68648 9.77881 9.67544 9.80977 9.67368 9.84193C9.67191 9.87409 9.67951 9.90608 9.69554 9.93401C9.71157 9.96195 9.73535 9.98464 9.76401 9.99934C10.0751 10.1593 10.3862 10.3322 10.6973 10.518C11.2263 10.8463 11.6575 11.3106 11.9459 11.8623C12.2344 12.414 12.3695 13.0329 12.3373 13.6547V14.8333C12.3373 14.8775 12.3549 14.9199 12.3862 14.9512C12.4174 14.9824 12.4598 15 12.504 15H15.6667C15.7551 15 15.8399 14.9649 15.9024 14.9024C15.9649 14.8399 16 14.7551 16 14.6667V12.6033Z" fill="#707070"/>
<path d="M11.1667 15.0002C11.2109 15.0002 11.2532 14.9826 11.2845 14.9514C11.3158 14.9201 11.3333 14.8777 11.3333 14.8335V13.6549C11.3628 13.2065 11.2712 12.7584 11.0682 12.3576C10.8652 11.9567 10.5582 11.6178 10.1793 11.3762C9.35294 10.8772 8.47856 10.4625 7.56932 10.1382C7.33265 10.0555 7.08332 9.84286 7.08332 9.60486V9.25153C7.08323 9.22945 7.08754 9.20757 7.09601 9.18718C7.10448 9.16679 7.11693 9.14829 7.13264 9.13277C7.14835 9.11724 7.16699 9.10501 7.18749 9.09679C7.20798 9.08856 7.22991 9.08451 7.25199 9.08486C8.40518 9.16691 9.55091 8.8444 10.492 8.17286C10.5306 8.14192 10.5621 8.10306 10.5844 8.0589C10.6067 8.01474 10.6193 7.9663 10.6213 7.91686C10.6233 7.86591 10.6147 7.81509 10.5961 7.7676C10.5775 7.72011 10.5493 7.67697 10.5133 7.64086C10.2822 7.44004 10.0998 7.18927 9.97999 6.90753C9.79863 6.36159 9.70086 5.79137 9.68999 5.2162C9.69306 4.49131 9.50584 3.77831 9.14704 3.14845C8.78824 2.51858 8.27042 1.99391 7.64532 1.62686C7.03666 1.30037 6.35669 1.12952 5.66599 1.12952C4.97529 1.12952 4.29532 1.30037 3.68665 1.62686C3.06158 1.99405 2.54383 2.51886 2.18514 3.14885C1.82646 3.77884 1.63939 4.49193 1.64265 5.21686C1.63219 5.79338 1.53349 6.3649 1.34999 6.91153C1.31808 6.99019 1.28042 7.0664 1.23732 7.13953C1.11563 7.33396 0.968552 7.5113 0.799987 7.66686C0.765711 7.70129 0.739373 7.74279 0.722817 7.78846C0.706262 7.83413 0.699888 7.88286 0.704143 7.93126C0.708398 7.97965 0.723179 8.02652 0.74745 8.0686C0.771721 8.11068 0.804896 8.14695 0.844653 8.17486C1.74881 8.82412 2.84705 9.14624 3.95865 9.0882H4.08399C4.10607 9.08793 4.12799 9.09205 4.14848 9.10029C4.16897 9.10854 4.18763 9.12077 4.20337 9.13626C4.21911 9.15176 4.23163 9.17021 4.2402 9.19057C4.24878 9.21093 4.25323 9.23278 4.25332 9.25486V9.6082C4.25332 9.8462 4.00399 10.0589 3.76732 10.1415C2.85809 10.4658 1.9837 10.8806 1.15732 11.3795C0.778487 11.6206 0.471265 11.9588 0.267699 12.359C0.0641337 12.7592 -0.0283182 13.2067 -1.3364e-05 13.6549V14.8335C-1.3364e-05 14.8777 0.0175461 14.9201 0.0488022 14.9514C0.0800582 14.9826 0.122451 15.0002 0.166653 15.0002H11.1667Z" fill="#707070"/>
</g>
<defs>
<clipPath id="clip0">
<rect width="16" height="16" fill="white"/>
</clipPath>
</defs>
</svg>
