<svg xmlns="http://www.w3.org/2000/svg" width="23" height="26.286" viewBox="0 0 23 26.286">
  <path id="solid_calendar-check" data-name="solid calendar-check" d="M22.384,8.214H.616A.616.616,0,0,1,0,7.6V5.75A2.464,2.464,0,0,1,2.464,3.286H4.929V.616A.616.616,0,0,1,5.545,0H7.6a.616.616,0,0,1,.616.616v2.67h6.571V.616A.616.616,0,0,1,15.4,0h2.054a.616.616,0,0,1,.616.616v2.67h2.464A2.464,2.464,0,0,1,23,5.75V7.6A.616.616,0,0,1,22.384,8.214ZM.616,9.857H22.384a.616.616,0,0,1,.616.616V23.821a2.464,2.464,0,0,1-2.464,2.464H2.464A2.464,2.464,0,0,1,0,23.821V10.473A.616.616,0,0,1,.616,9.857Zm17.111,4.926-1.446-1.458a.616.616,0,0,0-.871,0l-5.444,5.4-2.361-2.38a.616.616,0,0,0-.871,0L5.276,17.785a.616.616,0,0,0,0,.871l4.241,4.275a.616.616,0,0,0,.871,0l7.339-7.28a.616.616,0,0,0,0-.871Z" fill="#fff"/>
</svg>
