<svg xmlns="http://www.w3.org/2000/svg" width="24" height="25.071" viewBox="0 0 24 25.071">
  <path id="Icon_awesome-cog" data-name="Icon awesome-cog" d="M25,16.117l-2.153-1.243a9.736,9.736,0,0,0,0-3.548L25,10.082a.611.611,0,0,0,.278-.708,12.589,12.589,0,0,0-2.765-4.782.608.608,0,0,0-.748-.116L19.616,5.72a9.539,9.539,0,0,0-3.073-1.774V1.464a.606.606,0,0,0-.475-.591,12.707,12.707,0,0,0-5.52,0,.606.606,0,0,0-.475.591V3.951A9.84,9.84,0,0,0,7,5.725L4.852,4.482A.6.6,0,0,0,4.1,4.6,12.513,12.513,0,0,0,1.339,9.38a.6.6,0,0,0,.278.708L3.77,11.331a9.736,9.736,0,0,0,0,3.548L1.617,16.122a.611.611,0,0,0-.278.708A12.589,12.589,0,0,0,4.1,21.612a.608.608,0,0,0,.748.116l2.153-1.243a9.539,9.539,0,0,0,3.073,1.774v2.487a.606.606,0,0,0,.475.591,12.707,12.707,0,0,0,5.52,0,.606.606,0,0,0,.475-.591V22.259a9.84,9.84,0,0,0,3.073-1.774l2.153,1.243a.6.6,0,0,0,.748-.116,12.513,12.513,0,0,0,2.765-4.782A.624.624,0,0,0,25,16.117Zm-11.7,1.026A4.044,4.044,0,1,1,17.352,13.1,4.049,4.049,0,0,1,13.308,17.143Z" transform="translate(-1.311 -0.569)" fill="#707070"/>
</svg>
