<svg xmlns="http://www.w3.org/2000/svg" id="Facebook" width="33" height="31.892" viewBox="0 0 33 31.892">
    <defs>
        <style>
            .cls-1{fill:none}
        </style>
    </defs>
    <path id="Rectangle_6" d="M0 0H31.655V31.655H0z" class="cls-1" transform="translate(0 .237)"/>
    <path id="Rectangle_7" d="M0 0H31.655V31.655H0z" class="cls-1" transform="translate(.752)"/>
    <path id="Path_18" fill="#fff" d="M34.043 18.038h3.245V14.2h-3.205a4.492 4.492 0 0 0-4.471 4.471v1.9H27v3.838h2.572v10.208h3.838V24.409h3.205l.633-3.838H33.41v-1.9a.625.625 0 0 1 .633-.633z" transform="translate(-16.356 -8.383)"/>
    <path id="Rectangle_8" d="M0 0H31.655V31.655H0z" class="cls-1" transform="translate(1.345 .158)"/>
    <path id="Rectangle_9" d="M0 0H31.655V31.655H0z" class="cls-1" transform="translate(1.108 .237)"/>
    <path id="Rectangle_10" d="M0 0H31.655V31.655H0z" class="cls-1" transform="translate(.158 .237)"/>
</svg>
