<svg xmlns="http://www.w3.org/2000/svg" width="15.06" height="13.181" viewBox="0 0 15.06 13.181">
    <path fill="#1766b3" d="M13.483 32.929a4.431 4.431 0 0 0-5.953.441 4.427 4.427 0 0 0-5.953-.441 4.45 4.45 0 0 0-.312 6.506l5.159 5.256a1.545 1.545 0 0 0 2.212 0l5.159-5.256a4.454 4.454 0 0 0-.312-6.506zm-.694 5.515L7.63 43.7a.121.121 0 0 1-.2 0l-5.159-5.256a3.033 3.033 0 0 1 .215-4.433 2.982 2.982 0 0 1 4.014.309l1.03 1.05 1.029-1.05a2.98 2.98 0 0 1 4.015-.312 3.046 3.046 0 0 1 .215 4.436z" transform="translate(0 -31.978)"/>
</svg>
