<svg xmlns="http://www.w3.org/2000/svg" width="24" height="24" viewBox="0 0 24 24">
    <g id="prefix__iconExitDark" transform="translate(12 12)">
        <path id="prefix__iconExitDark-2" fill="#fff" d="M12 0a12 12 0 1 0 12 12A12.035 12.035 0 0 0 12 0zm7 17l-2 2-5-5-5 5-2-2 5-5-5-5 2-2 5 5 5-5 2 2-5 5z" data-name="iconExitDark" transform="translate(-12 -12)"/>
        <path id="prefix__iconExitDark-2" stroke="black" 
            stroke-width="1" fill="#fff" d="M12 0a12 12 0 1 0 12 12A12.035 12.035 0 0 0 12 0zm7 17l-2 2-5-5-5 5-2-2 5-5-5-5 2-2 5 5 5-5 2 2-5 5z" data-name="iconExitDark" transform="translate(-12 -12)"/>
    </g>
</svg>
