<svg xmlns="http://www.w3.org/2000/svg" id="Instagram" width="33" height="32.836" viewBox="0 0 33 32.836">
    <defs>
        <style>
            .cls-1{fill:none}.cls-2{fill:#fff}
        </style>
    </defs>
    <path id="Rectangle_11" d="M0 0H32.836V32.836H0z" class="cls-1"/>
    <path id="Rectangle_12" d="M0 0H32.836V32.836H0z" class="cls-1" transform="translate(.164)"/>
    <g id="Group_3" transform="translate(7.757 7.757)">
        <path id="Path_19" d="M27.619 20.56c2.3 0 2.586 0 3.489.041a4.562 4.562 0 0 1 1.6.287 2.318 2.318 0 0 1 .985.657 2.767 2.767 0 0 1 .657.985 4.793 4.793 0 0 1 .287 1.6c.041.9.041 1.19.041 3.489s0 2.586-.041 3.489a4.562 4.562 0 0 1-.287 1.6 2.318 2.318 0 0 1-.657.985 2.767 2.767 0 0 1-.985.657 4.793 4.793 0 0 1-1.6.287c-.9.041-1.19.041-3.489.041s-2.586 0-3.489-.041a4.562 4.562 0 0 1-1.6-.287 2.318 2.318 0 0 1-.985-.657 2.767 2.767 0 0 1-.657-.985 4.794 4.794 0 0 1-.287-1.6c-.041-.9-.041-1.19-.041-3.489s0-2.586.041-3.489a4.562 4.562 0 0 1 .287-1.6 2.318 2.318 0 0 1 .657-.985 2.767 2.767 0 0 1 .985-.657 4.794 4.794 0 0 1 1.6-.287c.9-.041 1.19-.041 3.489-.041zm0-1.56c-2.34 0-2.668 0-3.571.041a6.489 6.489 0 0 0-2.093.41 4.043 4.043 0 0 0-1.519.985 4.186 4.186 0 0 0-.985 1.519 6.489 6.489 0 0 0-.41 2.093C19 24.993 19 25.28 19 27.619s0 2.668.041 3.571a6.489 6.489 0 0 0 .41 2.093 4.042 4.042 0 0 0 .985 1.519 4.186 4.186 0 0 0 1.519.985 6.489 6.489 0 0 0 2.093.41c.944.041 1.231.041 3.571.041s2.668 0 3.571-.041a6.489 6.489 0 0 0 2.093-.41A4.042 4.042 0 0 0 34.8 34.8a4.186 4.186 0 0 0 .985-1.519 6.489 6.489 0 0 0 .41-2.093c.041-.944.041-1.231.041-3.571s0-2.668-.041-3.571a6.489 6.489 0 0 0-.41-2.093A4 4 0 0 0 34.8 20.4a4.186 4.186 0 0 0-1.519-.985A6.489 6.489 0 0 0 31.19 19z" class="cls-2" transform="translate(-19 -19)"/>
        <path id="Path_20" d="M33.574 29.3a4.474 4.474 0 1 0 4.474 4.433 4.484 4.484 0 0 0-4.474-4.433zm0 7.347a2.873 2.873 0 1 1 2.873-2.873 2.882 2.882 0 0 1-2.873 2.873z" class="cls-2" transform="translate(-24.954 -25.072)"/>
        <path id="Path_21" d="M50.952 27.423a1.026 1.026 0 1 1-1.026-1.023 1.016 1.016 0 0 1 1.026 1.023z" class="cls-2" transform="translate(-36.628 -23.359)"/>
    </g>
</svg>
