<svg xmlns="http://www.w3.org/2000/svg" width="26" height="26" viewBox="0 0 26 26">
    <path fill="#2e2c2d" d="M15.571 1.928a13 13 0 1 1-13 13 13 13 0 0 1 13-13zm0 24.375a11.337 11.337 0 0 0 4.5-.926l-5.92-6.66a.813.813 0 0 1-.205-.54v-2.436a.812.812 0 0 1 .812-.812c2.869 0 5.9-2.982 5.925-3.012a.812.812 0 0 1 .574-.238h3.25a.813.813 0 0 1 .812.813v4.875a.812.812 0 0 1-.449.727l-2.8 1.4v4.771a11.382 11.382 0 0 0 3.78-14.21h-2.967a.813.813 0 0 1-.575-.238l-3.25-3.25a.813.813 0 0 1-.238-.575V4.025a11.407 11.407 0 0 0-8.234.676c.105.089.208.182.306.28A4.876 4.876 0 0 1 7.449 13.3q-.121 0-.242-.006a19.08 19.08 0 0 0 .213 9.454.81.81 0 0 1 .021.133 11.34 11.34 0 0 0 8.13 3.419z" transform="translate(-2.571 -1.928)"/>
</svg>
