<svg width="24" height="24" viewBox="0 0 24 24" fill="none" xmlns="http://www.w3.org/2000/svg">
<path d="M12 0C9.62663 0 7.30655 0.703788 5.33316 2.02236C3.35977 3.34094 1.8217 5.21509 0.913451 7.4078C0.00519943 9.60051 -0.232441 12.0133 0.230582 14.3411C0.693605 16.6689 1.83649 18.8071 3.51472 20.4853C5.19295 22.1635 7.33115 23.3064 9.65892 23.7694C11.9867 24.2324 14.3995 23.9948 16.5922 23.0866C18.7849 22.1783 20.6591 20.6402 21.9776 18.6668C23.2962 16.6935 24 14.3734 24 12C23.9966 8.81846 22.7312 5.76821 20.4815 3.51852C18.2318 1.26883 15.1815 0.00344108 12 0V0ZM19.49 18.239C18.5755 19.3376 17.4305 20.2215 16.1362 20.8281C14.8418 21.4348 13.4299 21.7492 12.0005 21.7492C10.5711 21.7492 9.15917 21.4348 7.86486 20.8281C6.57055 20.2215 5.42554 19.3376 4.51101 18.239C4.48725 18.2106 4.47008 18.1774 4.46075 18.1416C4.45141 18.1058 4.45013 18.0683 4.45701 18.032C4.46434 17.9958 4.4794 17.9616 4.50114 17.9318C4.52288 17.9019 4.55081 17.8771 4.58301 17.859C5.89134 17.2141 7.24096 16.6565 8.62301 16.19L9.29701 15.941C9.4273 15.8659 9.53827 15.7615 9.62108 15.636C9.70389 15.5104 9.75626 15.3673 9.77401 15.218C9.85642 14.9247 9.87685 14.6174 9.83398 14.3158C9.79111 14.0141 9.68588 13.7247 9.52501 13.466C8.68601 12.542 7.86601 11.402 7.86601 8.551C7.81546 7.98309 7.88561 7.41091 8.07184 6.87202C8.25807 6.33314 8.55617 5.83973 8.94658 5.42421C9.33698 5.00868 9.81086 4.68043 10.3371 4.461C10.8633 4.24157 11.43 4.13592 12 4.151C12.57 4.13578 13.1369 4.24132 13.6632 4.46068C14.1896 4.68005 14.6636 5.00828 15.0541 5.42382C15.4446 5.83937 15.7428 6.33282 15.9291 6.87178C16.1154 7.41073 16.1856 7.983 16.135 8.551C16.135 11.402 15.315 12.542 14.476 13.466C14.3151 13.7247 14.2099 14.0141 14.167 14.3158C14.1242 14.6174 14.1446 14.9247 14.227 15.218C14.2448 15.3673 14.2971 15.5104 14.3799 15.636C14.4627 15.7615 14.5737 15.8659 14.704 15.941L15.379 16.19C16.7602 16.6566 18.1092 17.2138 19.417 17.858C19.4491 17.8762 19.477 17.901 19.4987 17.9309C19.5204 17.9607 19.5355 17.9949 19.543 18.031C19.5502 18.0674 19.5491 18.105 19.54 18.141C19.5308 18.177 19.5137 18.2104 19.49 18.239Z" fill="#707070"/>
</svg>
