<svg width="16" height="16" viewBox="0 0 16 16" fill="none" xmlns="http://www.w3.org/2000/svg">
<g clip-path="url(#clip0)">
<path d="M15.906 13.1674L14.2365 10.2579C14.2217 10.2321 14.2006 10.2106 14.1752 10.1953C14.1499 10.18 14.1211 10.1715 14.0916 10.1706C14.0621 10.1697 14.0328 10.1764 14.0066 10.1901C13.9804 10.2037 13.958 10.2239 13.9416 10.2487C13.0928 11.5414 11.8551 12.5237 10.4114 13.0506C10.3873 13.0593 10.3654 13.0732 10.3472 13.0915C10.329 13.1097 10.3151 13.1318 10.3064 13.1561C10.2977 13.1806 10.2945 13.2067 10.2969 13.2325C10.2993 13.2584 10.3073 13.2834 10.3203 13.3059L11.6941 15.6564C11.7615 15.7709 11.8597 15.8636 11.9772 15.9239C12.0948 15.9841 12.2269 16.0094 12.3581 15.9967C12.4893 15.9841 12.6142 15.934 12.7183 15.8523C12.8224 15.7706 12.9015 15.6607 12.9462 15.5354L13.5249 13.9274L15.1888 14.2122C15.3191 14.2343 15.4529 14.2186 15.5746 14.1667C15.6963 14.1148 15.8009 14.029 15.8761 13.9193C15.9513 13.8095 15.9941 13.6804 15.9994 13.547C16.0047 13.4136 15.9723 13.2814 15.906 13.1659V13.1674Z" fill="#707070"/>
<path d="M2.06701 10.231C2.05082 10.2058 2.02847 10.1854 2.00214 10.1716C1.97581 10.1578 1.9464 10.1511 1.91676 10.1522C1.88719 10.1531 1.85832 10.1615 1.83288 10.1768C1.80744 10.192 1.78627 10.2136 1.77138 10.2394L0.093581 13.1679C0.0274285 13.2834 -0.00482708 13.4155 0.000584513 13.5489C0.00599611 13.6823 0.0488513 13.8113 0.124141 13.921C0.19943 14.0306 0.304044 14.1164 0.425753 14.1681C0.547461 14.2199 0.681238 14.2356 0.811444 14.2134L2.47463 13.9286L3.05407 15.5374C3.09911 15.6625 3.17838 15.7721 3.28266 15.8535C3.38694 15.9349 3.51195 15.9847 3.64312 15.9971C3.7743 16.0094 3.90625 15.9839 4.02363 15.9234C4.14101 15.863 4.23898 15.77 4.30616 15.6555L5.68345 13.2993C5.69644 13.2771 5.70442 13.2521 5.70682 13.2264C5.70923 13.2006 5.706 13.1746 5.69736 13.1503C5.68877 13.126 5.67496 13.1039 5.65691 13.0857C5.63887 13.0675 5.61705 13.0535 5.59302 13.0448C4.1493 12.5138 2.91299 11.5272 2.06701 10.231Z" fill="#707070"/>
<ellipse cx="7.94148" cy="5.95601" rx="5.89241" ry="5.95601" fill="#707070"/>
</g>
<defs>
<clipPath id="clip0">
<rect width="16" height="16" fill="white"/>
</clipPath>
</defs>
</svg>
