<svg width="16" height="16" viewBox="0 0 16 16" fill="none" xmlns="http://www.w3.org/2000/svg">
<g clip-path="url(#clip0)">
<path d="M8 0C6.41775 0 4.87104 0.469192 3.55544 1.34824C2.23985 2.22729 1.21447 3.47672 0.608967 4.93853C0.00346629 6.40034 -0.15496 8.00887 0.153721 9.56072C0.462403 11.1126 1.22433 12.538 2.34315 13.6569C3.46197 14.7757 4.88743 15.5376 6.43928 15.8463C7.99113 16.155 9.59966 15.9965 11.0615 15.391C12.5233 14.7855 13.7727 13.7602 14.6518 12.4446C15.5308 11.129 16 9.58225 16 8C15.9977 5.87897 15.1541 3.84547 13.6543 2.34568C12.1545 0.845885 10.121 0.00229405 8 0V0ZM5.33334 8.33333C5.7289 8.33333 6.11558 8.45063 6.44448 8.67039C6.77338 8.89016 7.02972 9.20251 7.1811 9.56797C7.33247 9.93342 7.37208 10.3356 7.29491 10.7235C7.21774 11.1115 7.02726 11.4678 6.74755 11.7475C6.46785 12.0273 6.11148 12.2177 5.72352 12.2949C5.33556 12.3721 4.93342 12.3325 4.56797 12.1811C4.20252 12.0297 3.89016 11.7734 3.6704 11.4445C3.45063 11.1156 3.33334 10.7289 3.33334 10.3333C3.33334 9.8029 3.54405 9.29419 3.91912 8.91912C4.2942 8.54405 4.8029 8.33333 5.33334 8.33333ZM6 5C6 4.60444 6.1173 4.21776 6.33706 3.88886C6.55683 3.55996 6.86918 3.30362 7.23464 3.15224C7.60009 3.00087 8.00222 2.96126 8.39018 3.03843C8.77815 3.1156 9.13451 3.30608 9.41422 3.58579C9.69392 3.86549 9.8844 4.22186 9.96157 4.60982C10.0387 4.99778 9.99914 5.39991 9.84776 5.76537C9.69639 6.13082 9.44004 6.44318 9.11115 6.66294C8.78225 6.8827 8.39557 7 8 7C7.46957 7 6.96086 6.78929 6.58579 6.41421C6.21072 6.03914 6 5.53043 6 5ZM10.6667 12.3333C10.2711 12.3333 9.88443 12.216 9.55553 11.9963C9.22663 11.7765 8.97029 11.4642 8.81891 11.0987C8.66754 10.7332 8.62793 10.3311 8.7051 9.94315C8.78227 9.55519 8.97275 9.19882 9.25246 8.91912C9.53216 8.63941 9.88853 8.44893 10.2765 8.37176C10.6645 8.29459 11.0666 8.3342 11.432 8.48557C11.7975 8.63695 12.1098 8.89329 12.3296 9.22219C12.5494 9.55109 12.6667 9.93777 12.6667 10.3333C12.6667 10.8638 12.456 11.3725 12.0809 11.7475C11.7058 12.1226 11.1971 12.3333 10.6667 12.3333Z" fill="white"/>
</g>
<defs>
<clipPath id="clip0">
<rect width="16" height="16" fill="white"/>
</clipPath>
</defs>
</svg>
