<?xml version="1.0" encoding="utf-8"?>
<!-- Generator: Adobe Illustrator 24.1.0, SVG Export Plug-In . SVG Version: 6.00 Build 0)  -->
<svg version="1.1" id="Layer_1_Search" xmlns="http://www.w3.org/2000/svg" xmlns:xlink="http://www.w3.org/1999/xlink" x="0px" y="0px"
	 viewBox="0 0 80 80" style="enable-background:new 0 0 80 80;" xml:space="preserve">
<style type="text/css">
	.st0{fill:none;}
	.st1{fill:#0066B2;}
</style>
<rect x="0.1" y="0.1" class="st0" width="80" height="80"/>
<rect x="2.9" y="0.1" class="st0" width="80" height="80"/>
<rect x="0.5" y="0.1" class="st0" width="80" height="80"/>
<path class="st1" d="M55,51.2l-7.6-6.4c-0.8-0.7-1.6-1-2.3-1C46.9,41.7,48,39,48,36c0-6.6-5.4-12-12-12s-12,5.4-12,12s5.4,12,12,12
	c3,0,5.7-1.1,7.8-2.9c0,0.7,0.3,1.5,1,2.3l6.4,7.6c1.1,1.2,2.9,1.3,4,0.2S56.2,52.3,55,51.2z M35.9,43.9c-4.4,0-8-3.6-8-8s3.6-8,8-8
	s8,3.6,8,8S40.4,43.9,35.9,43.9z"/>
</svg>
