<?xml version="1.0" encoding="utf-8"?>
<!-- Generator: Adobe Illustrator 25.4.1, SVG Export Plug-In . SVG Version: 6.00 Build 0)  -->
<svg version="1.1" xmlns="http://www.w3.org/2000/svg" xmlns:xlink="http://www.w3.org/1999/xlink" x="0px" y="0px"
	 viewBox="0 0 33 33" style="enable-background:new 0 0 33 33;" xml:space="preserve">
<style type="text/css">
	.st0{fill:#000;}
	.st1{fill:#FFFFFF;}
</style>
<g id="Layer_1_copy">
	<path id="snapchat-brands_00000044886189018624322650000013759510391927391403_" class="st0" d="M16.5,0C7.4,0,0,7.4,0,16.5
		S7.4,33,16.5,33S33,25.6,33,16.5S25.6,0,16.5,0z"/>
</g>
<g id="Layer_1">
	<path id="snapchat-brands" class="st1" d="M27.8,22.6c-0.2,0.5-1.2,0.9-3,1.2c-0.1,0.3-0.2,0.7-0.3,1.1c-0.1,0.2-0.3,0.4-0.5,0.4h0
		c-0.4,0-0.9-0.2-1.7-0.2c-0.9,0-1.8,0.3-2.5,0.9c-0.9,0.8-2.1,1.2-3.3,1.2c-1.2,0-2.3-0.4-3.2-1.2c-0.7-0.6-1.6-0.9-2.5-0.9
		c-0.6,0-1.1,0.1-1.7,0.2c-0.3,0-0.5-0.1-0.6-0.4c-0.1-0.4-0.2-0.7-0.3-1.1c-0.9-0.1-3-0.5-3-1.4c0-0.2,0.2-0.5,0.4-0.5
		c3.1-0.5,4.5-3.7,4.5-3.8c0,0,0,0,0,0c0.2-0.2,0.2-0.6,0.1-0.8C10,16.7,9,16.5,8.6,16.3c-1.1-0.4-1.2-0.9-1.1-1.2
		c0.2-0.6,0.9-0.9,1.5-0.7c0,0,0,0,0,0c0.3,0.2,0.7,0.3,1,0.3c0.2,0,0.3,0,0.4-0.1c-0.1-1.6-0.3-3.9,0.3-5.1c1-2.2,3.2-3.6,5.6-3.6
		l0.4,0c2.4,0,4.6,1.4,5.6,3.6c0.6,1.3,0.3,3.5,0.3,5.1c0.1,0.1,0.2,0.1,0.4,0.1c0.3,0,0.7-0.1,1-0.3c0.3-0.1,0.6-0.1,0.9,0
		c0.4,0.1,0.6,0.4,0.7,0.8c0,0.4-0.4,0.8-1.1,1.1c-0.1,0-0.2,0.1-0.3,0.1c-0.4,0.1-1.1,0.3-1.3,0.8c-0.1,0.3,0,0.6,0.1,0.8
		c0,0,0,0,0,0c0.1,0.1,1.4,3.3,4.5,3.8C27.7,21.9,27.9,22.2,27.8,22.6C27.8,22.5,27.8,22.5,27.8,22.6L27.8,22.6z"/>
</g>
</svg>
