<svg xmlns="http://www.w3.org/2000/svg" id="Twitter" width="33" height="31.036" viewBox="0 0 33 31.036">
    <defs>
        <style>
            .cls-1{fill:none}
        </style>
    </defs>
    <path id="Rectangle_18" d="M0 0H30.805V30.805H0z" class="cls-1" transform="translate(.886 .231)"/>
    <path id="Rectangle_19" d="M0 0H30.805V30.805H0z" class="cls-1" transform="translate(0 .116)"/>
    <path id="Path_26" fill="#fff" d="M35.563 25.625a7.146 7.146 0 0 1-1.771.5 3.084 3.084 0 0 0 1.348-1.694 4.881 4.881 0 0 1-1.925.732 3.051 3.051 0 0 0-5.275 2.118 2.37 2.37 0 0 0 .077.732 8.654 8.654 0 0 1-6.238-3.273 3.051 3.051 0 0 0-.385 1.54 3.23 3.23 0 0 0 1.347 2.62 2.334 2.334 0 0 1-1.348-.424 3.058 3.058 0 0 0 2.387 3 2.883 2.883 0 0 1-.809.077 1.5 1.5 0 0 1-.578-.077 3.018 3.018 0 0 0 2.812 2.124 6.069 6.069 0 0 1-3.773 1.3 2.37 2.37 0 0 1-.732-.077 7.3 7.3 0 0 0 4.659 1.54 8.673 8.673 0 0 0 8.664-8.779v-.424a6.5 6.5 0 0 0 1.54-1.535z" transform="translate(-11.882 -14.689)"/>
    <path id="Rectangle_20" d="M0 0H30.805V30.805H0z" class="cls-1" transform="translate(1.617)"/>
    <path id="Rectangle_21" d="M0 0H30.805V30.805H0z" class="cls-1" transform="translate(2.195 .154)"/>
    <path id="Rectangle_22" d="M0 0H30.805V30.805H0z" class="cls-1" transform="translate(1.964 .231)"/>
    <path id="Rectangle_23" d="M0 0H30.805V30.805H0z" class="cls-1" transform="translate(1.04 .231)"/>
</svg>
