<svg width="16" height="16" viewBox="0 0 16 16" fill="none" xmlns="http://www.w3.org/2000/svg">
<g clip-path="url(#clip0)">
<path d="M14 0H2C1.46957 0 0.960859 0.210714 0.585786 0.585786C0.210714 0.960859 0 1.46957 0 2L0 8C0 8.53043 0.210714 9.03914 0.585786 9.41421C0.960859 9.78929 1.46957 10 2 10H14C14.5304 10 15.0391 9.78929 15.4142 9.41421C15.7893 9.03914 16 8.53043 16 8V2C16 1.46957 15.7893 0.960859 15.4142 0.585786C15.0391 0.210714 14.5304 0 14 0V0ZM14.6667 8C14.6667 8.17681 14.5964 8.34638 14.4714 8.47141C14.3464 8.59643 14.1768 8.66667 14 8.66667H2C1.82319 8.66667 1.65362 8.59643 1.5286 8.47141C1.40357 8.34638 1.33333 8.17681 1.33333 8V2C1.33333 1.82319 1.40357 1.65362 1.5286 1.5286C1.65362 1.40357 1.82319 1.33333 2 1.33333H14C14.1768 1.33333 14.3464 1.40357 14.4714 1.5286C14.5964 1.65362 14.6667 1.82319 14.6667 2V8Z" fill="#707070"/>
<path d="M6.36134 2.52407C6.31706 2.50328 6.26768 2.49587 6.21924 2.50273C6.17081 2.5096 6.12543 2.53046 6.08868 2.56274C6.04726 2.59964 6.01436 2.64511 5.99226 2.69599C5.97015 2.74687 5.95938 2.80195 5.96068 2.8574V7.14274C5.95946 7.19828 5.97027 7.25343 5.99236 7.30441C6.01446 7.35539 6.04731 7.40098 6.08868 7.43807C6.12554 7.47017 6.17095 7.49085 6.21936 7.4976C6.26777 7.50434 6.31711 7.49686 6.36134 7.47607L10.0773 5.51007C10.1669 5.45843 10.2413 5.38411 10.2931 5.29458C10.3448 5.20505 10.372 5.10347 10.372 5.00007C10.372 4.89667 10.3448 4.79509 10.2931 4.70556C10.2413 4.61603 10.1669 4.54171 10.0773 4.49007L6.36134 2.52407Z" fill="#707070"/>
<path d="M0.868652 12.1356C0.868652 12.5244 1.02311 12.8972 1.29803 13.1722C1.57296 13.4471 1.94585 13.6016 2.33465 13.6016C2.72346 13.6016 3.09634 13.4471 3.37127 13.1722C3.6462 12.8972 3.80065 12.5244 3.80065 12.1356C3.80065 11.7467 3.6462 11.3739 3.37127 11.0989C3.09634 10.824 2.72346 10.6696 2.33465 10.6696C1.94585 10.6696 1.57296 10.824 1.29803 11.0989C1.02311 11.3739 0.868652 11.7467 0.868652 12.1356Z" fill="#707070"/>
<path d="M2.33339 14.1335C1.87589 14.1335 1.42801 14.2648 1.04281 14.5116C0.657617 14.7584 0.351262 15.1105 0.160055 15.5261C0.136245 15.5773 0.125802 15.6336 0.129705 15.6899C0.133608 15.7462 0.15173 15.8005 0.182372 15.8479C0.213015 15.8953 0.255176 15.9341 0.304908 15.9607C0.35464 15.9873 0.410316 16.0009 0.466722 16.0001H4.20539C4.26131 16.0001 4.31632 15.9859 4.36533 15.959C4.41435 15.9321 4.45581 15.8932 4.48589 15.8461C4.51597 15.799 4.5337 15.745 4.53746 15.6892C4.54122 15.6334 4.53088 15.5776 4.50739 15.5268C4.3163 15.1109 4.0099 14.7586 3.62455 14.5116C3.2392 14.2646 2.79109 14.1334 2.33339 14.1335Z" fill="#707070"/>
<path d="M12.202 12.1325C12.202 12.5213 12.3565 12.8942 12.6314 13.1691C12.9063 13.444 13.2792 13.5985 13.668 13.5985C14.0568 13.5985 14.4297 13.444 14.7047 13.1691C14.9796 12.8942 15.134 12.5213 15.134 12.1325C15.134 11.7437 14.9796 11.3708 14.7047 11.0959C14.4297 10.821 14.0568 10.6665 13.668 10.6665C13.2792 10.6665 12.9063 10.821 12.6314 11.0959C12.3565 11.3708 12.202 11.7437 12.202 12.1325Z" fill="#707070"/>
<path d="M13.6668 14.1335C13.2093 14.1336 12.7614 14.2648 12.3762 14.5116C11.991 14.7584 11.6846 15.1105 11.4934 15.5261C11.4696 15.5773 11.4592 15.6336 11.4631 15.6899C11.467 15.7462 11.4851 15.8005 11.5157 15.8479C11.5464 15.8953 11.5886 15.9341 11.6383 15.9607C11.688 15.9873 11.7437 16.0009 11.8001 16.0001H15.5414C15.5974 16.0001 15.6524 15.9859 15.7014 15.959C15.7504 15.9321 15.7919 15.8932 15.8219 15.8461C15.852 15.799 15.8698 15.745 15.8735 15.6892C15.8773 15.6334 15.8669 15.5776 15.8434 15.5268C15.6522 15.1105 15.3453 14.7579 14.9595 14.5109C14.5736 14.2639 14.1249 14.1329 13.6668 14.1335Z" fill="#707070"/>
<path d="M6.53528 12.1325C6.53528 12.5213 6.68973 12.8942 6.96466 13.1691C7.23959 13.444 7.61247 13.5985 8.00128 13.5985C8.39009 13.5985 8.76297 13.444 9.0379 13.1691C9.31283 12.8942 9.46728 12.5213 9.46728 12.1325C9.46728 11.7437 9.31283 11.3708 9.0379 11.0959C8.76297 10.821 8.39009 10.6665 8.00128 10.6665C7.61247 10.6665 7.23959 10.821 6.96466 11.0959C6.68973 11.3708 6.53528 11.7437 6.53528 12.1325Z" fill="#707070"/>
<path d="M8.00001 14.1335C7.54252 14.1336 7.09463 14.2648 6.70944 14.5116C6.32424 14.7584 6.01789 15.1105 5.82668 15.5261C5.80287 15.5773 5.79243 15.6336 5.79633 15.6899C5.80023 15.7462 5.81836 15.8005 5.849 15.8479C5.87964 15.8953 5.9218 15.9341 5.97153 15.9607C6.02127 15.9873 6.07694 16.0009 6.13335 16.0001H9.87468C9.9306 16.0001 9.98561 15.9859 10.0346 15.959C10.0836 15.9321 10.1251 15.8932 10.1552 15.8461C10.1853 15.799 10.203 15.745 10.2068 15.6892C10.2105 15.6334 10.2002 15.5776 10.1767 15.5268C9.9854 15.1105 9.67859 14.7579 9.29272 14.5109C8.90685 14.2639 8.45817 14.1329 8.00001 14.1335Z" fill="#707070"/>
</g>
<defs>
<clipPath id="clip0">
<rect width="16" height="16" fill="white"/>
</clipPath>
</defs>
</svg>
