<svg width="16" height="16" viewBox="0 0 16 16" fill="none" xmlns="http://www.w3.org/2000/svg">
<g clip-path="url(#clip0)">
<path d="M14.6667 0H1.33333C0.979711 0 0.640573 0.140476 0.390524 0.390524C0.140476 0.640573 0 0.979711 0 1.33333L0 9.33333C0 9.68696 0.140476 10.0261 0.390524 10.2761C0.640573 10.5262 0.979711 10.6667 1.33333 10.6667H3.66667C3.84348 10.6667 4.01305 10.5964 4.13807 10.4714C4.2631 10.3464 4.33333 10.1768 4.33333 10C4.33333 9.82319 4.2631 9.65362 4.13807 9.5286C4.01305 9.40357 3.84348 9.33333 3.66667 9.33333H1.66667C1.57826 9.33333 1.49348 9.29821 1.43096 9.2357C1.36845 9.17319 1.33333 9.08841 1.33333 9V1.66667C1.33333 1.57826 1.36845 1.49348 1.43096 1.43096C1.49348 1.36845 1.57826 1.33333 1.66667 1.33333H14.3333C14.4217 1.33333 14.5065 1.36845 14.569 1.43096C14.6315 1.49348 14.6667 1.57826 14.6667 1.66667V9C14.6667 9.08841 14.6315 9.17319 14.569 9.2357C14.5065 9.29821 14.4217 9.33333 14.3333 9.33333H12.3333C12.1565 9.33333 11.987 9.40357 11.8619 9.5286C11.7369 9.65362 11.6667 9.82319 11.6667 10C11.6667 10.1768 11.7369 10.3464 11.8619 10.4714C11.987 10.5964 12.1565 10.6667 12.3333 10.6667H14.6667C15.0203 10.6667 15.3594 10.5262 15.6095 10.2761C15.8595 10.0261 16 9.68696 16 9.33333V1.33333C16 0.979711 15.8595 0.640573 15.6095 0.390524C15.3594 0.140476 15.0203 0 14.6667 0V0Z" fill="white"/>
<path d="M5.83533 5.83317C5.83533 6.4078 6.0636 6.9589 6.46993 7.36523C6.87626 7.77156 7.42736 7.99983 8.002 7.99983C8.57663 7.99983 9.12773 7.77156 9.53406 7.36523C9.94039 6.9589 10.1687 6.4078 10.1687 5.83317C10.1687 5.25853 9.94039 4.70743 9.53406 4.30111C9.12773 3.89478 8.57663 3.6665 8.002 3.6665C7.42736 3.6665 6.87626 3.89478 6.46993 4.30111C6.0636 4.70743 5.83533 5.25853 5.83533 5.83317Z" fill="white"/>
<path d="M10.5127 10.1924C10.544 10.1513 10.5653 10.1034 10.5749 10.0526C10.5845 10.0018 10.5822 9.9495 10.5681 9.89976C10.405 9.34679 10.0661 8.86209 9.60263 8.51919C9.13918 8.1763 8.57654 7.99394 8.00006 7.99977C7.42561 8.00218 6.86711 8.18892 6.40675 8.53252C5.94638 8.87611 5.60846 9.35841 5.44273 9.90843C5.42816 9.95799 5.42531 10.0103 5.4344 10.0611C5.44349 10.112 5.46428 10.16 5.49512 10.2014C5.52595 10.2429 5.566 10.2766 5.6121 10.2999C5.65819 10.3232 5.70907 10.3355 5.76073 10.3358L10.2427 10.3251C10.295 10.3257 10.3466 10.314 10.3935 10.291C10.4404 10.2679 10.4813 10.2342 10.5127 10.1924Z" fill="white"/>
<path d="M12 11.3335H4.00004C3.82323 11.3335 3.65366 11.4037 3.52864 11.5288C3.40361 11.6538 3.33337 11.8234 3.33337 12.0002C3.33337 12.177 3.40361 12.3465 3.52864 12.4716C3.65366 12.5966 3.82323 12.6668 4.00004 12.6668H4.45537L5.01338 15.4668C5.04411 15.6174 5.12593 15.7528 5.24499 15.8499C5.36404 15.9471 5.51302 16.0002 5.66671 16.0002H10.3334C10.4871 16.0002 10.636 15.9471 10.7551 15.8499C10.8742 15.7528 10.956 15.6174 10.9867 15.4668L11.5487 12.6668H12C12.1769 12.6668 12.3464 12.5966 12.4715 12.4716C12.5965 12.3465 12.6667 12.177 12.6667 12.0002C12.6667 11.8234 12.5965 11.6538 12.4715 11.5288C12.3464 11.4037 12.1769 11.3335 12 11.3335ZM7.16871 13.8335C7.16871 13.6686 7.21764 13.5074 7.30929 13.3703C7.40095 13.2332 7.53122 13.1264 7.6836 13.0634C7.83599 13.0004 8.00365 12.984 8.16536 13.0163C8.32706 13.0486 8.47554 13.1282 8.59201 13.245C8.70847 13.3617 8.78768 13.5104 8.81961 13.6722C8.85154 13.8339 8.83475 14.0016 8.77137 14.1538C8.70799 14.306 8.60087 14.436 8.46356 14.5274C8.32626 14.6187 8.16495 14.6672 8.00004 14.6668C7.77943 14.6661 7.56809 14.578 7.41228 14.4219C7.25646 14.2657 7.16889 14.0541 7.16871 13.8335Z" fill="white"/>
</g>
<defs>
<clipPath id="clip0">
<rect width="16" height="16" fill="white"/>
</clipPath>
</defs>
</svg>
